{"asset":{"version":"2.0","generator":"Blockbench 4.11.2 glTF exporter"},"scenes":[{"nodes":[17],"name":"blockbench_export"}],"scene":0,"nodes":[{"name":"cylinder","mesh":0},{"translation":[0.5317095588235291,0.265625,0.703125],"name":"wheel_front_left","children":[0]},{"name":"cylinder","mesh":1},{"translation":[-0.5317095588235291,0.265625,0.703125],"name":"wheel_front_right","children":[2]},{"name":"cylinder","mesh":2},{"translation":[-0.5317095588235291,0.265625,-0.65625],"name":"wheel_rear_right","children":[4]},{"name":"cylinder","mesh":3},{"translation":[0.5317095588235291,0.265625,-0.65625],"name":"wheel_rear_left","children":[6]},{"rotation":[0.5555702330196022,0,0,0.8314696123025452],"translation":[0,-0.011958857261409106,-0.02887123539097769],"name":"cuboid","mesh":4},{"translation":[-0.125,1.074458857261409,0.4663712353909777],"name":"eye1","children":[8]},{"rotation":[0.5555702330196022,0,0,0.8314696123025452],"translation":[0,-0.011958857261409106,-0.02887123539097769],"name":"cuboid","mesh":5},{"translation":[0.3125,1.074458857261409,0.4663712353909777],"name":"eye2","children":[10]},{"rotation":[0.7071067811865475,0,0,0.7071067811865476],"translation":[0,0.1484375,-0.03125],"name":"cuboid","mesh":6},{"translation":[0,0.4765625,1.28125],"name":"mouth","children":[12]},{"name":"body","mesh":7},{"translation":[0,0.25,0],"name":"body","children":[14]},{"name":"root","children":[1,3,5,7,9,11,13,15]},{"children":[16]}],"bufferViews":[{"buffer":0,"byteOffset":0,"byteLength":1728,"target":34962,"byteStride":12},{"buffer":0,"byteOffset":1728,"byteLength":1728,"target":34962,"byteStride":12},{"buffer":0,"byteOffset":3456,"byteLength":1152,"target":34962,"byteStride":8},{"buffer":0,"byteOffset":4608,"byteLength":384,"target":34963},{"buffer":0,"byteOffset":4992,"byteLength":1728,"target":34962,"byteStride":12},{"buffer":0,"byteOffset":6720,"byteLength":1728,"target":34962,"byteStride":12},{"buffer":0,"byteOffset":8448,"byteLength":1152,"target":34962,"byteStride":8},{"buffer":0,"byteOffset":9600,"byteLength":384,"target":34963},{"buffer":0,"byteOffset":9984,"byteLength":1728,"target":34962,"byteStride":12},{"buffer":0,"byteOffset":11712,"byteLength":1728,"target":34962,"byteStride":12},{"buffer":0,"byteOffset":13440,"byteLength":1152,"target":34962,"byteStride":8},{"buffer":0,"byteOffset":14592,"byteLength":384,"target":34963},{"buffer":0,"byteOffset":14976,"byteLength":1728,"target":34962,"byteStride":12},{"buffer":0,"byteOffset":16704,"byteLength":1728,"target":34962,"byteStride":12},{"buffer":0,"byteOffset":18432,"byteLength":1152,"target":34962,"byteStride":8},{"buffer":0,"byteOffset":19584,"byteLength":384,"target":34963},{"buffer":0,"byteOffset":19968,"byteLength":288,"target":34962,"byteStride":12},{"buffer":0,"byteOffset":20256,"byteLength":288,"target":34962,"byteStride":12},{"buffer":0,"byteOffset":20544,"byteLength":192,"target":34962,"byteStride":8},{"buffer":0,"byteOffset":20736,"byteLength":72,"target":34963},{"buffer":0,"byteOffset":20808,"byteLength":288,"target":34962,"byteStride":12},{"buffer":0,"byteOffset":21096,"byteLength":288,"target":34962,"byteStride":12},{"buffer":0,"byteOffset":21384,"byteLength":192,"target":34962,"byteStride":8},{"buffer":0,"byteOffset":21576,"byteLength":72,"target":34963},{"buffer":0,"byteOffset":21648,"byteLength":864,"target":34962,"byteStride":12},{"buffer":0,"byteOffset":22512,"byteLength":864,"target":34962,"byteStride":12},{"buffer":0,"byteOffset":23376,"byteLength":576,"target":34962,"byteStride":8},{"buffer":0,"byteOffset":23952,"byteLength":216,"target":34963},{"buffer":0,"byteOffset":24168,"byteLength":3744,"target":34962,"byteStride":12},{"buffer":0,"byteOffset":27912,"byteLength":3744,"target":34962,"byteStride":12},{"buffer":0,"byteOffset":31656,"byteLength":2496,"target":34962,"byteStride":8},{"buffer":0,"byteOffset":34152,"byteLength":936,"target":34963},{"buffer":0,"byteOffset":35088,"byteLength":20},{"buffer":0,"byteOffset":35108,"byteLength":80},{"buffer":0,"byteOffset":35188,"byteLength":20},{"buffer":0,"byteOffset":35208,"byteLength":60},{"buffer":0,"byteOffset":35268,"byteLength":20},{"buffer":0,"byteOffset":35288,"byteLength":80},{"buffer":0,"byteOffset":35368,"byteLength":20},{"buffer":0,"byteOffset":35388,"byteLength":60},{"buffer":0,"byteOffset":35448,"byteLength":20},{"buffer":0,"byteOffset":35468,"byteLength":80},{"buffer":0,"byteOffset":35548,"byteLength":12},{"buffer":0,"byteOffset":35560,"byteLength":36},{"buffer":0,"byteOffset":35596,"byteLength":20},{"buffer":0,"byteOffset":35616,"byteLength":80}],"buffers":[{"byteLength":35696,"uri":"data:application/octet-stream;base64,"}],"accessors":[{"bufferView":0,"componentType":5126,"count":144,"max":[0.06204044073820114,0.1875,0.1875],"min":[-0.12545955181121826,-0.1875,-0.1875],"type":"VEC3"},{"bufferView":1,"componentType":5126,"count":144,"max":[1,1,1],"min":[-1,-1,-1],"type":"VEC3"},{"bufferView":2,"componentType":5126,"count":144,"max":[0.5078125,0.5560156106948853],"min":[0,0],"type":"VEC2"},{"bufferView":3,"componentType":5123,"count":192,"max":[143],"min":[0],"type":"SCALAR"},{"bufferView":4,"componentType":5126,"count":144,"max":[0.12545955181121826,0.1875,0.1875],"min":[-0.06204044073820114,-0.1875,-0.1875],"type":"VEC3"},{"bufferView":5,"componentType":5126,"count":144,"max":[1,1,1],"min":[-1,-1,-1],"type":"VEC3"},{"bufferView":6,"componentType":5126,"count":144,"max":[0.5546875,0.5703125],"min":[0.1328125,0.0390625],"type":"VEC2"},{"bufferView":7,"componentType":5123,"count":192,"max":[143],"min":[0],"type":"SCALAR"},{"bufferView":8,"componentType":5126,"count":144,"max":[0.12545955181121826,0.1875,0.1875],"min":[-0.06204044073820114,-0.1875,-0.1875],"type":"VEC3"},{"bufferView":9,"componentType":5126,"count":144,"max":[1,1,1],"min":[-1,-1,-1],"type":"VEC3"},{"bufferView":10,"componentType":5126,"count":144,"max":[0.5703125,0.5703125],"min":[0.140625,0.0390625],"type":"VEC2"},{"bufferView":11,"componentType":5123,"count":192,"max":[143],"min":[0],"type":"SCALAR"},{"bufferView":12,"componentType":5126,"count":144,"max":[0.06204044073820114,0.1875,0.1875],"min":[-0.12545955181121826,-0.1875,-0.1875],"type":"VEC3"},{"bufferView":13,"componentType":5126,"count":144,"max":[1,1,1],"min":[-1,-1,-1],"type":"VEC3"},{"bufferView":14,"componentType":5126,"count":144,"max":[0.5703125,0.578125],"min":[0,0.0546875],"type":"VEC2"},{"bufferView":15,"componentType":5123,"count":192,"max":[143],"min":[0],"type":"SCALAR"},{"bufferView":16,"componentType":5126,"count":24,"max":[0.109375,0.046875,0.09375],"min":[-0.109375,0.015625,-0.09375],"type":"VEC3"},{"bufferView":17,"componentType":5126,"count":24,"max":[1,1,1],"min":[-1,-1,-1],"type":"VEC3"},{"bufferView":18,"componentType":5126,"count":24,"max":[0.0390625,0.0390625],"min":[0,0],"type":"VEC2"},{"bufferView":19,"componentType":5123,"count":36,"max":[23],"min":[0],"type":"SCALAR"},{"bufferView":20,"componentType":5126,"count":24,"max":[0.109375,0.046875,0.09375],"min":[-0.109375,0.015625,-0.09375],"type":"VEC3"},{"bufferView":21,"componentType":5126,"count":24,"max":[1,1,1],"min":[-1,-1,-1],"type":"VEC3"},{"bufferView":22,"componentType":5126,"count":24,"max":[0.0390625,0.0390625],"min":[0,0],"type":"VEC2"},{"bufferView":23,"componentType":5123,"count":36,"max":[23],"min":[0],"type":"SCALAR"},{"bufferView":24,"componentType":5126,"count":72,"max":[0.28125,0.03125,0.21875],"min":[-0.28125,0.03125,0.0625],"type":"VEC3"},{"bufferView":25,"componentType":5126,"count":72,"max":[1,1,0],"min":[0,-1,0],"type":"VEC3"},{"bufferView":26,"componentType":5126,"count":72,"max":[0.0390625,0.0390625],"min":[0,0],"type":"VEC2"},{"bufferView":27,"componentType":5123,"count":108,"max":[71],"min":[0],"type":"SCALAR"},{"bufferView":28,"componentType":5126,"count":312,"max":[0.625,1.0625,1.25],"min":[-0.65625,0,-1.1875],"type":"VEC3"},{"bufferView":29,"componentType":5126,"count":312,"max":[1,1,1],"min":[-1,-1,-1],"type":"VEC3"},{"bufferView":30,"componentType":5126,"count":312,"max":[0.56982421875,0.5546875],"min":[0,0],"type":"VEC2"},{"bufferView":31,"componentType":5123,"count":468,"max":[311],"min":[0],"type":"SCALAR"},{"bufferView":32,"componentType":5126,"count":5,"max":[2],"min":[0],"type":"SCALAR"},{"bufferView":33,"componentType":5126,"count":5,"max":[0,0,0.10886687785387039,1],"min":[0,0,-0.10886687785387039,0.9940563440322876],"type":"VEC4"},{"bufferView":34,"componentType":5126,"count":5,"max":[2],"min":[0],"type":"SCALAR"},{"bufferView":35,"componentType":5126,"count":5,"max":[0,1.0744588375091553,0.46637123823165894],"min":[-0.3125,1.0119588375091553,0.46637123823165894],"type":"VEC3"},{"bufferView":36,"componentType":5126,"count":5,"max":[2],"min":[0],"type":"SCALAR"},{"bufferView":37,"componentType":5126,"count":5,"max":[0,0,0.08715574443340302,1],"min":[0,0,-0.08715574443340302,0.9961947202682495],"type":"VEC4"},{"bufferView":38,"componentType":5126,"count":5,"max":[2],"min":[0],"type":"SCALAR"},{"bufferView":39,"componentType":5126,"count":5,"max":[0.4375,1.0744588375091553,0.46637123823165894],"min":[0.125,1.0119588375091553,0.46637123823165894],"type":"VEC3"},{"bufferView":40,"componentType":5126,"count":5,"max":[2],"min":[0],"type":"SCALAR"},{"bufferView":41,"componentType":5126,"count":5,"max":[0,0,0.10886687785387039,1],"min":[0,0,-0.06540312618017197,0.9940563440322876],"type":"VEC4"},{"bufferView":42,"componentType":5126,"count":3,"max":[1.5],"min":[0],"type":"SCALAR"},{"bufferView":43,"componentType":5126,"count":3,"max":[0.0625,0.4765625,1.28125],"min":[0,0.4765625,1.28125],"type":"VEC3"},{"bufferView":44,"componentType":5126,"count":5,"max":[2],"min":[0],"type":"SCALAR"},{"bufferView":45,"componentType":5126,"count":5,"max":[0,0,0.10452846437692642,1],"min":[0,0,-0.08715574443340302,0.9945219159126282],"type":"VEC4"}],"materials":[{"pbrMetallicRoughness":{"metallicFactor":0,"roughnessFactor":1,"baseColorTexture":{"index":0}},"alphaMode":"MASK","alphaCutoff":0.05,"doubleSided":true}],"textures":[{"sampler":0,"source":0,"name":"car"}],"samplers":[{"magFilter":9728,"minFilter":9728,"wrapS":33071,"wrapT":33071}],"images":[{"mimeType":"image/png","uri":"data:image/png;base64,"}],"meshes":[{"primitives":[{"mode":4,"attributes":{"POSITION":0,"NORMAL":1,"TEXCOORD_0":2},"indices":3,"material":0}]},{"primitives":[{"mode":4,"attributes":{"POSITION":4,"NORMAL":5,"TEXCOORD_0":6},"indices":7,"material":0}]},{"primitives":[{"mode":4,"attributes":{"POSITION":8,"NORMAL":9,"TEXCOORD_0":10},"indices":11,"material":0}]},{"primitives":[{"mode":4,"attributes":{"POSITION":12,"NORMAL":13,"TEXCOORD_0":14},"indices":15,"material":0}]},{"primitives":[{"mode":4,"attributes":{"POSITION":16,"NORMAL":17,"TEXCOORD_0":18},"indices":19,"material":0}]},{"primitives":[{"mode":4,"attributes":{"POSITION":20,"NORMAL":21,"TEXCOORD_0":22},"indices":23,"material":0}]},{"primitives":[{"mode":4,"attributes":{"POSITION":24,"NORMAL":25,"TEXCOORD_0":26},"indices":27,"material":0}]},{"primitives":[{"mode":4,"attributes":{"POSITION":28,"NORMAL":29,"TEXCOORD_0":30},"indices":31,"material":0}]}],"animations":[{"name":"animation","samplers":[{"input":32,"output":33,"interpolation":"LINEAR"},{"input":34,"output":35,"interpolation":"LINEAR"},{"input":36,"output":37,"interpolation":"LINEAR"},{"input":38,"output":39,"interpolation":"LINEAR"},{"input":40,"output":41,"interpolation":"LINEAR"},{"input":42,"output":43,"interpolation":"LINEAR"},{"input":44,"output":45,"interpolation":"LINEAR"}],"channels":[{"sampler":0,"target":{"node":9,"path":"rotation"}},{"sampler":1,"target":{"node":9,"path":"translation"}},{"sampler":2,"target":{"node":11,"path":"rotation"}},{"sampler":3,"target":{"node":11,"path":"translation"}},{"sampler":4,"target":{"node":13,"path":"rotation"}},{"sampler":5,"target":{"node":13,"path":"translation"}},{"sampler":6,"target":{"node":15,"path":"rotation"}}]}]}