{"asset":{"version":"2.0","generator":"Blockbench 4.11.2 glTF exporter"},"scenes":[{"nodes":[19],"name":"blockbench_export"}],"scene":0,"nodes":[{"name":"body","mesh":0},{"translation":[0,0.25,0],"name":"body","children":[0]},{"rotation":[0.5543807145043601,-0.05438071450436026,-0.03633603174660163,0.829689372037837],"translation":[-0.0625,-0.011958857261409106,-0.02887123539097769],"name":"cuboid","mesh":1},{"translation":[-0.1875,1.074458857261409,0.4663712353909777],"name":"eye1","children":[2]},{"rotation":[0.5550414532620518,0.03626819510153038,0.024233633202731857,0.8306782374702147],"translation":[-0.125,-0.011958857261409106,-0.02887123539097769],"name":"cuboid","mesh":2},{"translation":[0.3125,1.074458857261409,0.4663712353909777],"name":"eye2","children":[4]},{"name":"cylinder","mesh":3},{"translation":[0.5317095588235291,0.265625,0.703125],"name":"wheel_front_left","children":[6]},{"name":"cylinder","mesh":4},{"translation":[-0.5317095588235291,0.265625,0.703125],"name":"wheel_front_right","children":[8]},{"name":"cylinder","mesh":5},{"translation":[-0.5317095588235291,0.265625,-0.65625],"name":"wheel_rear_right","children":[10]},{"name":"cylinder","mesh":6},{"translation":[0.5317095588235291,0.265625,-0.65625],"name":"wheel_rear_left","children":[12]},{"rotation":[0.7071067811865475,0,0,0.7071067811865476],"translation":[0,0.1484375,-0.03125],"name":"cuboid","mesh":7},{"translation":[0,0.4765625,1.28125],"name":"mouth","children":[14]},{"translation":[-6.391086490440868e-19,-0.09868421052631571,1.0956148269327202e-18],"name":"sphere","mesh":8},{"translation":[6.391086490440868e-19,1.6611842105263157,-1.0956148269327202e-18],"name":"exclamation","children":[16]},{"name":"root","children":[1,3,5,7,9,11,13,15,17]},{"children":[18]}],"bufferViews":[{"buffer":0,"byteOffset":0,"byteLength":3744,"target":34962,"byteStride":12},{"buffer":0,"byteOffset":3744,"byteLength":3744,"target":34962,"byteStride":12},{"buffer":0,"byteOffset":7488,"byteLength":2496,"target":34962,"byteStride":8},{"buffer":0,"byteOffset":9984,"byteLength":936,"target":34963},{"buffer":0,"byteOffset":10920,"byteLength":480,"target":34962,"byteStride":12},{"buffer":0,"byteOffset":11400,"byteLength":480,"target":34962,"byteStride":12},{"buffer":0,"byteOffset":11880,"byteLength":320,"target":34962,"byteStride":8},{"buffer":0,"byteOffset":12200,"byteLength":120,"target":34963},{"buffer":0,"byteOffset":12320,"byteLength":480,"target":34962,"byteStride":12},{"buffer":0,"byteOffset":12800,"byteLength":480,"target":34962,"byteStride":12},{"buffer":0,"byteOffset":13280,"byteLength":320,"target":34962,"byteStride":8},{"buffer":0,"byteOffset":13600,"byteLength":120,"target":34963},{"buffer":0,"byteOffset":13720,"byteLength":1728,"target":34962,"byteStride":12},{"buffer":0,"byteOffset":15448,"byteLength":1728,"target":34962,"byteStride":12},{"buffer":0,"byteOffset":17176,"byteLength":1152,"target":34962,"byteStride":8},{"buffer":0,"byteOffset":18328,"byteLength":384,"target":34963},{"buffer":0,"byteOffset":18712,"byteLength":1728,"target":34962,"byteStride":12},{"buffer":0,"byteOffset":20440,"byteLength":1728,"target":34962,"byteStride":12},{"buffer":0,"byteOffset":22168,"byteLength":1152,"target":34962,"byteStride":8},{"buffer":0,"byteOffset":23320,"byteLength":384,"target":34963},{"buffer":0,"byteOffset":23704,"byteLength":1728,"target":34962,"byteStride":12},{"buffer":0,"byteOffset":25432,"byteLength":1728,"target":34962,"byteStride":12},{"buffer":0,"byteOffset":27160,"byteLength":1152,"target":34962,"byteStride":8},{"buffer":0,"byteOffset":28312,"byteLength":384,"target":34963},{"buffer":0,"byteOffset":28696,"byteLength":1728,"target":34962,"byteStride":12},{"buffer":0,"byteOffset":30424,"byteLength":1728,"target":34962,"byteStride":12},{"buffer":0,"byteOffset":32152,"byteLength":1152,"target":34962,"byteStride":8},{"buffer":0,"byteOffset":33304,"byteLength":384,"target":34963},{"buffer":0,"byteOffset":33688,"byteLength":384,"target":34962,"byteStride":12},{"buffer":0,"byteOffset":34072,"byteLength":384,"target":34962,"byteStride":12},{"buffer":0,"byteOffset":34456,"byteLength":256,"target":34962,"byteStride":8},{"buffer":0,"byteOffset":34712,"byteLength":96,"target":34963},{"buffer":0,"byteOffset":34808,"byteLength":4032,"target":34962,"byteStride":12},{"buffer":0,"byteOffset":38840,"byteLength":4032,"target":34962,"byteStride":12},{"buffer":0,"byteOffset":42872,"byteLength":2688,"target":34962,"byteStride":8},{"buffer":0,"byteOffset":45560,"byteLength":864,"target":34963},{"buffer":0,"byteOffset":46424,"byteLength":20},{"buffer":0,"byteOffset":46444,"byteLength":60},{"buffer":0,"byteOffset":46504,"byteLength":20},{"buffer":0,"byteOffset":46524,"byteLength":60},{"buffer":0,"byteOffset":46584,"byteLength":20},{"buffer":0,"byteOffset":46604,"byteLength":60},{"buffer":0,"byteOffset":46664,"byteLength":20},{"buffer":0,"byteOffset":46684,"byteLength":60},{"buffer":0,"byteOffset":46744,"byteLength":20},{"buffer":0,"byteOffset":46764,"byteLength":60},{"buffer":0,"byteOffset":46824,"byteLength":20},{"buffer":0,"byteOffset":46844,"byteLength":60}],"buffers":[{"byteLength":46904,"uri":"data:application/octet-stream;base64,"}],"accessors":[{"bufferView":0,"componentType":5126,"count":312,"max":[0.625,1.0625,1.25],"min":[-0.65625,0,-1.1875],"type":"VEC3"},{"bufferView":1,"componentType":5126,"count":312,"max":[1,1,1],"min":[-1,-1,-1],"type":"VEC3"},{"bufferView":2,"componentType":5126,"count":312,"max":[0.56982421875,0.5546875],"min":[0,0],"type":"VEC2"},{"bufferView":3,"componentType":5123,"count":468,"max":[311],"min":[0],"type":"SCALAR"},{"bufferView":4,"componentType":5126,"count":40,"max":[0.109375,0.0648132860660553,0.03125],"min":[-0.109375,0.003666142700240016,-0.04568561911582947],"type":"VEC3"},{"bufferView":5,"componentType":5126,"count":40,"max":[1,0.9055907130241394,0.9297699928283691],"min":[-1,-0.9055907130241394,-0.9297699928283691],"type":"VEC3"},{"bufferView":6,"componentType":5126,"count":40,"max":[0.0390625,0.0390625],"min":[0,0],"type":"VEC2"},{"bufferView":7,"componentType":5123,"count":60,"max":[39],"min":[0],"type":"SCALAR"},{"bufferView":8,"componentType":5126,"count":40,"max":[0.109375,0.0648132860660553,0.03125],"min":[-0.109375,0.003666142700240016,-0.04568561911582947],"type":"VEC3"},{"bufferView":9,"componentType":5126,"count":40,"max":[1,0.9055907130241394,0.9297699928283691],"min":[-1,-0.9055907130241394,-0.9297699928283691],"type":"VEC3"},{"bufferView":10,"componentType":5126,"count":40,"max":[0.0390625,0.0390625],"min":[0,0],"type":"VEC2"},{"bufferView":11,"componentType":5123,"count":60,"max":[39],"min":[0],"type":"SCALAR"},{"bufferView":12,"componentType":5126,"count":144,"max":[0.06204044073820114,0.1875,0.1875],"min":[-0.12545955181121826,-0.1875,-0.1875],"type":"VEC3"},{"bufferView":13,"componentType":5126,"count":144,"max":[1,1,1],"min":[-1,-1,-1],"type":"VEC3"},{"bufferView":14,"componentType":5126,"count":144,"max":[0.5078125,0.5560156106948853],"min":[0,0],"type":"VEC2"},{"bufferView":15,"componentType":5123,"count":192,"max":[143],"min":[0],"type":"SCALAR"},{"bufferView":16,"componentType":5126,"count":144,"max":[0.12545955181121826,0.1875,0.1875],"min":[-0.06204044073820114,-0.1875,-0.1875],"type":"VEC3"},{"bufferView":17,"componentType":5126,"count":144,"max":[1,1,1],"min":[-1,-1,-1],"type":"VEC3"},{"bufferView":18,"componentType":5126,"count":144,"max":[0.5546875,0.5703125],"min":[0.1328125,0.0390625],"type":"VEC2"},{"bufferView":19,"componentType":5123,"count":192,"max":[143],"min":[0],"type":"SCALAR"},{"bufferView":20,"componentType":5126,"count":144,"max":[0.12545955181121826,0.1875,0.1875],"min":[-0.06204044073820114,-0.1875,-0.1875],"type":"VEC3"},{"bufferView":21,"componentType":5126,"count":144,"max":[1,1,1],"min":[-1,-1,-1],"type":"VEC3"},{"bufferView":22,"componentType":5126,"count":144,"max":[0.5703125,0.5703125],"min":[0.140625,0.0390625],"type":"VEC2"},{"bufferView":23,"componentType":5123,"count":192,"max":[143],"min":[0],"type":"SCALAR"},{"bufferView":24,"componentType":5126,"count":144,"max":[0.06204044073820114,0.1875,0.1875],"min":[-0.12545955181121826,-0.1875,-0.1875],"type":"VEC3"},{"bufferView":25,"componentType":5126,"count":144,"max":[1,1,1],"min":[-1,-1,-1],"type":"VEC3"},{"bufferView":26,"componentType":5126,"count":144,"max":[0.5703125,0.578125],"min":[0,0.0546875],"type":"VEC2"},{"bufferView":27,"componentType":5123,"count":192,"max":[143],"min":[0],"type":"SCALAR"},{"bufferView":28,"componentType":5126,"count":32,"max":[0.046875,0.03125,0.21875],"min":[-0.046875,0.03125,0.140625],"type":"VEC3"},{"bufferView":29,"componentType":5126,"count":32,"max":[1,1,0],"min":[0,-1,0],"type":"VEC3"},{"bufferView":30,"componentType":5126,"count":32,"max":[0.029296875,0.0390625],"min":[0.009765625,0],"type":"VEC2"},{"bufferView":31,"componentType":5123,"count":48,"max":[31],"min":[0],"type":"SCALAR"},{"bufferView":32,"componentType":5126,"count":336,"max":[0.09375,0.6875,0.09375],"min":[-0.09375,-0.09375,-0.09375],"type":"VEC3"},{"bufferView":33,"componentType":5126,"count":336,"max":[0.9828721880912781,0.9659258127212524,0.9828721880912781],"min":[-0.9828721880912781,-0.9659258127212524,-0.9828721880912781],"type":"VEC3"},{"bufferView":34,"componentType":5126,"count":336,"max":[0.5520374774932861,0.59375],"min":[0.009319061413407326,0],"type":"VEC2"},{"bufferView":35,"componentType":5123,"count":432,"max":[335],"min":[0],"type":"SCALAR"},{"bufferView":36,"componentType":5126,"count":5,"max":[2],"min":[0],"type":"SCALAR"},{"bufferView":37,"componentType":5126,"count":5,"max":[0,0.375,0],"min":[0,0.25,0],"type":"VEC3"},{"bufferView":38,"componentType":5126,"count":5,"max":[2],"min":[0],"type":"SCALAR"},{"bufferView":39,"componentType":5126,"count":5,"max":[-0.1875,1.1369588375091553,0.46637123823165894],"min":[-0.1875,1.0119588375091553,0.46637123823165894],"type":"VEC3"},{"bufferView":40,"componentType":5126,"count":5,"max":[2],"min":[0],"type":"SCALAR"},{"bufferView":41,"componentType":5126,"count":5,"max":[0.3125,1.1369588375091553,0.46637123823165894],"min":[0.3125,1.0119588375091553,0.46637123823165894],"type":"VEC3"},{"bufferView":42,"componentType":5126,"count":5,"max":[2],"min":[0],"type":"SCALAR"},{"bufferView":43,"componentType":5126,"count":5,"max":[0,0.6640625,1.28125],"min":[0,0.4765625,1.28125],"type":"VEC3"},{"bufferView":44,"componentType":5126,"count":5,"max":[2],"min":[0],"type":"SCALAR"},{"bufferView":45,"componentType":5126,"count":5,"max":[2,2.4000000953674316,1],"min":[1,1,1],"type":"VEC3"},{"bufferView":46,"componentType":5126,"count":5,"max":[2],"min":[0],"type":"SCALAR"},{"bufferView":47,"componentType":5126,"count":5,"max":[6.391086408811203e-19,1.9736841917037964,-1.0956147833968986e-18],"min":[6.391086408811203e-19,1.6611841917037964,-1.0956147833968986e-18],"type":"VEC3"}],"materials":[{"pbrMetallicRoughness":{"metallicFactor":0,"roughnessFactor":1,"baseColorTexture":{"index":0}},"alphaMode":"MASK","alphaCutoff":0.05,"doubleSided":true},{"pbrMetallicRoughness":{"metallicFactor":0,"roughnessFactor":1,"baseColorTexture":{"index":1}},"alphaMode":"MASK","alphaCutoff":0.05,"doubleSided":true}],"textures":[{"sampler":0,"source":0,"name":"car.png"},{"sampler":1,"source":1,"name":"texture"}],"samplers":[{"magFilter":9728,"minFilter":9728,"wrapS":33071,"wrapT":33071},{"magFilter":9728,"minFilter":9728,"wrapS":33071,"wrapT":33071}],"images":[{"mimeType":"image/png","uri":"data:image/png;base64,"},{"mimeType":"image/png","uri":"data:image/png;base64,"}],"meshes":[{"primitives":[{"mode":4,"attributes":{"POSITION":0,"NORMAL":1,"TEXCOORD_0":2},"indices":3,"material":0}]},{"primitives":[{"mode":4,"attributes":{"POSITION":4,"NORMAL":5,"TEXCOORD_0":6},"indices":7,"material":0}]},{"primitives":[{"mode":4,"attributes":{"POSITION":8,"NORMAL":9,"TEXCOORD_0":10},"indices":11,"material":0}]},{"primitives":[{"mode":4,"attributes":{"POSITION":12,"NORMAL":13,"TEXCOORD_0":14},"indices":15,"material":0}]},{"primitives":[{"mode":4,"attributes":{"POSITION":16,"NORMAL":17,"TEXCOORD_0":18},"indices":19,"material":0}]},{"primitives":[{"mode":4,"attributes":{"POSITION":20,"NORMAL":21,"TEXCOORD_0":22},"indices":23,"material":0}]},{"primitives":[{"mode":4,"attributes":{"POSITION":24,"NORMAL":25,"TEXCOORD_0":26},"indices":27,"material":0}]},{"primitives":[{"mode":4,"attributes":{"POSITION":28,"NORMAL":29,"TEXCOORD_0":30},"indices":31,"material":0}]},{"primitives":[{"mode":4,"attributes":{"POSITION":32,"NORMAL":33,"TEXCOORD_0":34},"indices":35,"material":1}]}],"animations":[{"name":"animation2","samplers":[{"input":36,"output":37,"interpolation":"LINEAR"},{"input":38,"output":39,"interpolation":"LINEAR"},{"input":40,"output":41,"interpolation":"LINEAR"},{"input":42,"output":43,"interpolation":"LINEAR"},{"input":44,"output":45,"interpolation":"LINEAR"},{"input":46,"output":47,"interpolation":"LINEAR"}],"channels":[{"sampler":0,"target":{"node":1,"path":"translation"}},{"sampler":1,"target":{"node":3,"path":"translation"}},{"sampler":2,"target":{"node":5,"path":"translation"}},{"sampler":3,"target":{"node":15,"path":"translation"}},{"sampler":4,"target":{"node":15,"path":"scale"}},{"sampler":5,"target":{"node":17,"path":"translation"}}]}]}