{"asset":{"version":"2.0","generator":"Blockbench 4.11.2 glTF exporter"},"scenes":[{"nodes":[19],"name":"blockbench_export"}],"scene":0,"nodes":[{"name":"body","mesh":0},{"translation":[0,0.25,0],"name":"body","children":[0]},{"rotation":[0.5555702330196022,0,0,0.8314696123025452],"translation":[-0.0625,-0.0744588572614091,-0.02887123539097769],"name":"cuboid","mesh":1},{"translation":[-0.125,1.074458857261409,0.4663712353909777],"name":"eye1","children":[2]},{"rotation":[0.5555702330196022,0,0,0.8314696123025452],"translation":[-0.125,-0.0744588572614091,-0.02887123539097769],"name":"cuboid","mesh":2},{"translation":[0.3125,1.074458857261409,0.4663712353909777],"name":"eye2","children":[4]},{"name":"cylinder","mesh":3},{"translation":[0.5317095588235291,0.265625,0.703125],"name":"wheel_front_left","children":[6]},{"name":"cylinder","mesh":4},{"translation":[-0.5317095588235291,0.265625,0.703125],"name":"wheel_front_right","children":[8]},{"name":"cylinder","mesh":5},{"translation":[-0.5317095588235291,0.265625,-0.65625],"name":"wheel_rear_right","children":[10]},{"name":"cylinder","mesh":6},{"translation":[0.5317095588235291,0.265625,-0.65625],"name":"wheel_rear_left","children":[12]},{"rotation":[0.7071067811865475,0,0,0.7071067811865476],"translation":[0,0.1484375,-0.03125],"name":"cuboid","mesh":7},{"translation":[0,0.4765625,1.28125],"name":"mouth","children":[14]},{"translation":[2.081668171172169e-18,4.440892098500626e-16,0],"name":"cylinder","mesh":8},{"translation":[-4.212899870229389e-18,2.0294642857142855,-0.0023470138933889897],"name":"search","children":[16]},{"name":"root","children":[1,3,5,7,9,11,13,15,17]},{"children":[18]}],"bufferViews":[{"buffer":0,"byteOffset":0,"byteLength":3744,"target":34962,"byteStride":12},{"buffer":0,"byteOffset":3744,"byteLength":3744,"target":34962,"byteStride":12},{"buffer":0,"byteOffset":7488,"byteLength":2496,"target":34962,"byteStride":8},{"buffer":0,"byteOffset":9984,"byteLength":936,"target":34963},{"buffer":0,"byteOffset":10920,"byteLength":288,"target":34962,"byteStride":12},{"buffer":0,"byteOffset":11208,"byteLength":288,"target":34962,"byteStride":12},{"buffer":0,"byteOffset":11496,"byteLength":192,"target":34962,"byteStride":8},{"buffer":0,"byteOffset":11688,"byteLength":72,"target":34963},{"buffer":0,"byteOffset":11760,"byteLength":288,"target":34962,"byteStride":12},{"buffer":0,"byteOffset":12048,"byteLength":288,"target":34962,"byteStride":12},{"buffer":0,"byteOffset":12336,"byteLength":192,"target":34962,"byteStride":8},{"buffer":0,"byteOffset":12528,"byteLength":72,"target":34963},{"buffer":0,"byteOffset":12600,"byteLength":1728,"target":34962,"byteStride":12},{"buffer":0,"byteOffset":14328,"byteLength":1728,"target":34962,"byteStride":12},{"buffer":0,"byteOffset":16056,"byteLength":1152,"target":34962,"byteStride":8},{"buffer":0,"byteOffset":17208,"byteLength":384,"target":34963},{"buffer":0,"byteOffset":17592,"byteLength":1728,"target":34962,"byteStride":12},{"buffer":0,"byteOffset":19320,"byteLength":1728,"target":34962,"byteStride":12},{"buffer":0,"byteOffset":21048,"byteLength":1152,"target":34962,"byteStride":8},{"buffer":0,"byteOffset":22200,"byteLength":384,"target":34963},{"buffer":0,"byteOffset":22584,"byteLength":1728,"target":34962,"byteStride":12},{"buffer":0,"byteOffset":24312,"byteLength":1728,"target":34962,"byteStride":12},{"buffer":0,"byteOffset":26040,"byteLength":1152,"target":34962,"byteStride":8},{"buffer":0,"byteOffset":27192,"byteLength":384,"target":34963},{"buffer":0,"byteOffset":27576,"byteLength":1728,"target":34962,"byteStride":12},{"buffer":0,"byteOffset":29304,"byteLength":1728,"target":34962,"byteStride":12},{"buffer":0,"byteOffset":31032,"byteLength":1152,"target":34962,"byteStride":8},{"buffer":0,"byteOffset":32184,"byteLength":384,"target":34963},{"buffer":0,"byteOffset":32568,"byteLength":288,"target":34962,"byteStride":12},{"buffer":0,"byteOffset":32856,"byteLength":288,"target":34962,"byteStride":12},{"buffer":0,"byteOffset":33144,"byteLength":192,"target":34962,"byteStride":8},{"buffer":0,"byteOffset":33336,"byteLength":72,"target":34963},{"buffer":0,"byteOffset":33408,"byteLength":2640,"target":34962,"byteStride":12},{"buffer":0,"byteOffset":36048,"byteLength":2640,"target":34962,"byteStride":12},{"buffer":0,"byteOffset":38688,"byteLength":1760,"target":34962,"byteStride":8},{"buffer":0,"byteOffset":40448,"byteLength":624,"target":34963},{"buffer":0,"byteOffset":41072,"byteLength":20},{"buffer":0,"byteOffset":41092,"byteLength":80},{"buffer":0,"byteOffset":41172,"byteLength":8},{"buffer":0,"byteOffset":41180,"byteLength":24},{"buffer":0,"byteOffset":41204,"byteLength":20},{"buffer":0,"byteOffset":41224,"byteLength":80},{"buffer":0,"byteOffset":41304,"byteLength":20},{"buffer":0,"byteOffset":41324,"byteLength":60},{"buffer":0,"byteOffset":41384,"byteLength":20},{"buffer":0,"byteOffset":41404,"byteLength":60},{"buffer":0,"byteOffset":41464,"byteLength":20},{"buffer":0,"byteOffset":41484,"byteLength":60},{"buffer":0,"byteOffset":41544,"byteLength":20},{"buffer":0,"byteOffset":41564,"byteLength":60},{"buffer":0,"byteOffset":41624,"byteLength":20},{"buffer":0,"byteOffset":41644,"byteLength":80},{"buffer":0,"byteOffset":41724,"byteLength":20},{"buffer":0,"byteOffset":41744,"byteLength":80},{"buffer":0,"byteOffset":41824,"byteLength":20},{"buffer":0,"byteOffset":41844,"byteLength":80},{"buffer":0,"byteOffset":41924,"byteLength":20},{"buffer":0,"byteOffset":41944,"byteLength":80},{"buffer":0,"byteOffset":42024,"byteLength":12},{"buffer":0,"byteOffset":42036,"byteLength":36},{"buffer":0,"byteOffset":42072,"byteLength":20},{"buffer":0,"byteOffset":42092,"byteLength":60}],"buffers":[{"byteLength":42152,"uri":"data:application/octet-stream;base64,"}],"accessors":[{"bufferView":0,"componentType":5126,"count":312,"max":[0.625,1.0625,1.25],"min":[-0.65625,0,-1.1875],"type":"VEC3"},{"bufferView":1,"componentType":5126,"count":312,"max":[1,1,1],"min":[-1,-1,-1],"type":"VEC3"},{"bufferView":2,"componentType":5126,"count":312,"max":[0.56982421875,0.5546875],"min":[0,0],"type":"VEC2"},{"bufferView":3,"componentType":5123,"count":468,"max":[311],"min":[0],"type":"SCALAR"},{"bufferView":4,"componentType":5126,"count":24,"max":[0.109375,0.046875,0.09375],"min":[-0.109375,0.015625,-0.09375],"type":"VEC3"},{"bufferView":5,"componentType":5126,"count":24,"max":[1,1,1],"min":[-1,-1,-1],"type":"VEC3"},{"bufferView":6,"componentType":5126,"count":24,"max":[0.0390625,0.0390625],"min":[0,0],"type":"VEC2"},{"bufferView":7,"componentType":5123,"count":36,"max":[23],"min":[0],"type":"SCALAR"},{"bufferView":8,"componentType":5126,"count":24,"max":[0.109375,0.046875,0.09375],"min":[-0.109375,0.015625,-0.09375],"type":"VEC3"},{"bufferView":9,"componentType":5126,"count":24,"max":[1,1,1],"min":[-1,-1,-1],"type":"VEC3"},{"bufferView":10,"componentType":5126,"count":24,"max":[0.0390625,0.0390625],"min":[0,0],"type":"VEC2"},{"bufferView":11,"componentType":5123,"count":36,"max":[23],"min":[0],"type":"SCALAR"},{"bufferView":12,"componentType":5126,"count":144,"max":[0.06204044073820114,0.1875,0.1875],"min":[-0.12545955181121826,-0.1875,-0.1875],"type":"VEC3"},{"bufferView":13,"componentType":5126,"count":144,"max":[1,1,1],"min":[-1,-1,-1],"type":"VEC3"},{"bufferView":14,"componentType":5126,"count":144,"max":[0.5078125,0.5560156106948853],"min":[0,0],"type":"VEC2"},{"bufferView":15,"componentType":5123,"count":192,"max":[143],"min":[0],"type":"SCALAR"},{"bufferView":16,"componentType":5126,"count":144,"max":[0.12545955181121826,0.1875,0.1875],"min":[-0.06204044073820114,-0.1875,-0.1875],"type":"VEC3"},{"bufferView":17,"componentType":5126,"count":144,"max":[1,1,1],"min":[-1,-1,-1],"type":"VEC3"},{"bufferView":18,"componentType":5126,"count":144,"max":[0.5546875,0.5703125],"min":[0.1328125,0.0390625],"type":"VEC2"},{"bufferView":19,"componentType":5123,"count":192,"max":[143],"min":[0],"type":"SCALAR"},{"bufferView":20,"componentType":5126,"count":144,"max":[0.12545955181121826,0.1875,0.1875],"min":[-0.06204044073820114,-0.1875,-0.1875],"type":"VEC3"},{"bufferView":21,"componentType":5126,"count":144,"max":[1,1,1],"min":[-1,-1,-1],"type":"VEC3"},{"bufferView":22,"componentType":5126,"count":144,"max":[0.5703125,0.5703125],"min":[0.140625,0.0390625],"type":"VEC2"},{"bufferView":23,"componentType":5123,"count":192,"max":[143],"min":[0],"type":"SCALAR"},{"bufferView":24,"componentType":5126,"count":144,"max":[0.06204044073820114,0.1875,0.1875],"min":[-0.12545955181121826,-0.1875,-0.1875],"type":"VEC3"},{"bufferView":25,"componentType":5126,"count":144,"max":[1,1,1],"min":[-1,-1,-1],"type":"VEC3"},{"bufferView":26,"componentType":5126,"count":144,"max":[0.5703125,0.578125],"min":[0,0.0546875],"type":"VEC2"},{"bufferView":27,"componentType":5123,"count":192,"max":[143],"min":[0],"type":"SCALAR"},{"bufferView":28,"componentType":5126,"count":24,"max":[0.140625,0.03125,0.21875],"min":[-0.140625,0.03125,0.140625],"type":"VEC3"},{"bufferView":29,"componentType":5126,"count":24,"max":[1,1,0],"min":[0,0,0],"type":"VEC3"},{"bufferView":30,"componentType":5126,"count":24,"max":[0.029296875,0.0390625],"min":[0.009765625,0],"type":"VEC2"},{"bufferView":31,"componentType":5123,"count":36,"max":[23],"min":[0],"type":"SCALAR"},{"bufferView":32,"componentType":5126,"count":220,"max":[0.2191724181175232,0.3100990056991577,0.035205207765102386],"min":[-0.2191724181175232,-0.4044642746448517,-0.03051117993891239],"type":"VEC3"},{"bufferView":33,"componentType":5126,"count":220,"max":[0.9536194205284119,1,1],"min":[-0.9536194205284119,-1,-1],"type":"VEC3"},{"bufferView":34,"componentType":5126,"count":220,"max":[0.5180437564849854,0.625],"min":[0,0],"type":"VEC2"},{"bufferView":35,"componentType":5123,"count":312,"max":[219],"min":[0],"type":"SCALAR"},{"bufferView":36,"componentType":5126,"count":5,"max":[2],"min":[0],"type":"SCALAR"},{"bufferView":37,"componentType":5126,"count":5,"max":[0,0.1736481785774231,0,1],"min":[0,-0.1736481785774231,0,0.9848077297210693],"type":"VEC4"},{"bufferView":38,"componentType":5126,"count":2,"max":[2],"min":[1],"type":"SCALAR"},{"bufferView":39,"componentType":5126,"count":2,"max":[1,1,1],"min":[1,1,1],"type":"VEC3"},{"bufferView":40,"componentType":5126,"count":5,"max":[2],"min":[0],"type":"SCALAR"},{"bufferView":41,"componentType":5126,"count":5,"max":[0,0,0.10886687785387039,1],"min":[0,0,-0.10886687785387039,0.9940563440322876],"type":"VEC4"},{"bufferView":42,"componentType":5126,"count":5,"max":[2],"min":[0],"type":"SCALAR"},{"bufferView":43,"componentType":5126,"count":5,"max":[0.25,1.0744588375091553,0.46637123823165894],"min":[-0.5625,0.9494588375091553,0.46637123823165894],"type":"VEC3"},{"bufferView":44,"componentType":5126,"count":5,"max":[2],"min":[0],"type":"SCALAR"},{"bufferView":45,"componentType":5126,"count":5,"max":[1,1,1],"min":[0.5,1,1],"type":"VEC3"},{"bufferView":46,"componentType":5126,"count":5,"max":[2],"min":[0],"type":"SCALAR"},{"bufferView":47,"componentType":5126,"count":5,"max":[0.625,1.0744588375091553,0.46637123823165894],"min":[-0.25,0.9494588375091553,0.46637123823165894],"type":"VEC3"},{"bufferView":48,"componentType":5126,"count":5,"max":[2],"min":[0],"type":"SCALAR"},{"bufferView":49,"componentType":5126,"count":5,"max":[1,1,1],"min":[0.5,1,1],"type":"VEC3"},{"bufferView":50,"componentType":5126,"count":5,"max":[2],"min":[0],"type":"SCALAR"},{"bufferView":51,"componentType":5126,"count":5,"max":[0,0.2798290252685547,0,1],"min":[0,-0.2798290252685547,0,0.9600498676300049],"type":"VEC4"},{"bufferView":52,"componentType":5126,"count":5,"max":[2],"min":[0],"type":"SCALAR"},{"bufferView":53,"componentType":5126,"count":5,"max":[0,0.2798290252685547,0,1],"min":[0,-0.2798290252685547,0,0.9600498676300049],"type":"VEC4"},{"bufferView":54,"componentType":5126,"count":5,"max":[2],"min":[0],"type":"SCALAR"},{"bufferView":55,"componentType":5126,"count":5,"max":[0,0.2798290252685547,0,1],"min":[0,-0.2798290252685547,0,0.9600498676300049],"type":"VEC4"},{"bufferView":56,"componentType":5126,"count":5,"max":[2],"min":[0],"type":"SCALAR"},{"bufferView":57,"componentType":5126,"count":5,"max":[0,0.2798290252685547,0,1],"min":[0,-0.2798290252685547,0,0.9600498676300049],"type":"VEC4"},{"bufferView":58,"componentType":5126,"count":3,"max":[2],"min":[0],"type":"SCALAR"},{"bufferView":59,"componentType":5126,"count":3,"max":[1,1,1],"min":[1,1,1],"type":"VEC3"},{"bufferView":60,"componentType":5126,"count":5,"max":[2],"min":[0],"type":"SCALAR"},{"bufferView":61,"componentType":5126,"count":5,"max":[-4.212899929313718e-18,2.3419642448425293,-0.0023470139130949974],"min":[-4.212899929313718e-18,2.0294642448425293,-0.0023470139130949974],"type":"VEC3"}],"materials":[{"pbrMetallicRoughness":{"metallicFactor":0,"roughnessFactor":1,"baseColorTexture":{"index":0}},"alphaMode":"MASK","alphaCutoff":0.05,"doubleSided":true},{"pbrMetallicRoughness":{"metallicFactor":0,"roughnessFactor":1,"baseColorTexture":{"index":1}},"alphaMode":"MASK","alphaCutoff":0.05,"doubleSided":true}],"textures":[{"sampler":0,"source":0,"name":"car.png"},{"sampler":1,"source":1,"name":"texture"}],"samplers":[{"magFilter":9728,"minFilter":9728,"wrapS":33071,"wrapT":33071},{"magFilter":9728,"minFilter":9728,"wrapS":33071,"wrapT":33071}],"images":[{"mimeType":"image/png","uri":"data:image/png;base64,"},{"mimeType":"image/png","uri":"data:image/png;base64,"}],"meshes":[{"primitives":[{"mode":4,"attributes":{"POSITION":0,"NORMAL":1,"TEXCOORD_0":2},"indices":3,"material":0}]},{"primitives":[{"mode":4,"attributes":{"POSITION":4,"NORMAL":5,"TEXCOORD_0":6},"indices":7,"material":0}]},{"primitives":[{"mode":4,"attributes":{"POSITION":8,"NORMAL":9,"TEXCOORD_0":10},"indices":11,"material":0}]},{"primitives":[{"mode":4,"attributes":{"POSITION":12,"NORMAL":13,"TEXCOORD_0":14},"indices":15,"material":0}]},{"primitives":[{"mode":4,"attributes":{"POSITION":16,"NORMAL":17,"TEXCOORD_0":18},"indices":19,"material":0}]},{"primitives":[{"mode":4,"attributes":{"POSITION":20,"NORMAL":21,"TEXCOORD_0":22},"indices":23,"material":0}]},{"primitives":[{"mode":4,"attributes":{"POSITION":24,"NORMAL":25,"TEXCOORD_0":26},"indices":27,"material":0}]},{"primitives":[{"mode":4,"attributes":{"POSITION":28,"NORMAL":29,"TEXCOORD_0":30},"indices":31,"material":0}]},{"primitives":[{"mode":4,"attributes":{"POSITION":32,"NORMAL":33,"TEXCOORD_0":34},"indices":35,"material":1}]}],"animations":[{"name":"search","samplers":[{"input":36,"output":37,"interpolation":"LINEAR"},{"input":38,"output":39,"interpolation":"LINEAR"},{"input":40,"output":41,"interpolation":"LINEAR"},{"input":42,"output":43,"interpolation":"LINEAR"},{"input":44,"output":45,"interpolation":"LINEAR"},{"input":46,"output":47,"interpolation":"LINEAR"},{"input":48,"output":49,"interpolation":"LINEAR"},{"input":50,"output":51,"interpolation":"LINEAR"},{"input":52,"output":53,"interpolation":"LINEAR"},{"input":54,"output":55,"interpolation":"LINEAR"},{"input":56,"output":57,"interpolation":"LINEAR"},{"input":58,"output":59,"interpolation":"LINEAR"},{"input":60,"output":61,"interpolation":"LINEAR"}],"channels":[{"sampler":0,"target":{"node":18,"path":"rotation"}},{"sampler":1,"target":{"node":18,"path":"scale"}},{"sampler":2,"target":{"node":1,"path":"rotation"}},{"sampler":3,"target":{"node":3,"path":"translation"}},{"sampler":4,"target":{"node":3,"path":"scale"}},{"sampler":5,"target":{"node":5,"path":"translation"}},{"sampler":6,"target":{"node":5,"path":"scale"}},{"sampler":7,"target":{"node":7,"path":"rotation"}},{"sampler":8,"target":{"node":9,"path":"rotation"}},{"sampler":9,"target":{"node":11,"path":"rotation"}},{"sampler":10,"target":{"node":13,"path":"rotation"}},{"sampler":11,"target":{"node":15,"path":"scale"}},{"sampler":12,"target":{"node":17,"path":"translation"}}]}]}